<svg xmlns="http://www.w3.org/2000/svg" fill="none" viewBox="0 0 240 31" height="31" width="240">
<g clip-path="url(#clip0_7883_57184)">
<path fill="white" d="M23.3855 15.2185V15.208C23.4349 13.3747 23.9429 11.5942 24.8989 9.9193C25.862 8.23031 27.2378 6.71726 28.9911 5.41885C30.7303 4.12747 32.7552 3.1176 35.0094 2.41033C37.3342 1.68195 39.8037 1.31249 42.3472 1.31249H42.4107C42.6153 0.555959 43.3067 0 44.1322 0C45.1165 0 45.9137 0.795233 45.9137 1.77696C45.9137 2.75868 45.1165 3.55392 44.1322 3.55392C43.3102 3.55392 42.6153 2.99796 42.4107 2.24143H42.3472C39.8989 2.24143 37.5247 2.59682 35.2881 3.29705C33.1362 3.97265 31.203 4.93678 29.5485 6.16482C28.0809 7.2521 26.8956 8.49774 26.0172 9.87356C26.5181 9.39501 27.0826 8.94813 27.7105 8.53644C29.0405 7.65676 30.5892 6.96709 32.3107 6.48854C34.0852 5.9924 35.969 5.74257 37.9057 5.74257H37.9692C38.1738 4.98604 38.8653 4.43008 39.6908 4.43008C40.675 4.43008 41.4723 5.22532 41.4723 6.20704C41.4723 7.18877 40.675 7.984 39.6908 7.984C38.8688 7.984 38.1738 7.42804 37.9692 6.67151H37.9057C36.0501 6.67151 34.2545 6.91079 32.5612 7.3823C30.9349 7.83621 29.4744 8.48366 28.2256 9.31056C26.9909 10.1269 26.0207 11.0734 25.3505 12.122C25.2834 12.2276 25.2199 12.3332 25.1564 12.4422C25.5339 12.1537 25.9678 11.8863 26.4582 11.64C28.3385 10.6934 30.8291 10.1691 33.4678 10.1691H33.5313C33.7359 9.41261 34.4274 8.85665 35.2529 8.85665C36.2371 8.85665 37.0344 9.65188 37.0344 10.6336C37.0344 11.6153 36.2371 12.4106 35.2529 12.4106C34.4309 12.4106 33.7359 11.8546 33.5313 11.0981H33.4678C32.2014 11.0981 30.9772 11.2212 29.8236 11.4675C28.7195 11.7033 27.7282 12.0411 26.8815 12.4669C26.3665 12.7273 25.922 13.0123 25.5515 13.3184C25.9078 13.7547 26.2606 14.3318 26.3735 15.0144H28.6701C28.8747 14.2579 29.5661 13.7019 30.3916 13.7019C31.3759 13.7019 32.1731 14.4972 32.1731 15.4789C32.1731 16.4606 31.3759 17.2559 30.3916 17.2559C29.5696 17.2559 28.8747 16.6999 28.6701 15.9434H26.3347C26.183 16.4395 25.8267 16.9779 25.414 17.5198C25.8091 17.8716 26.2994 18.1989 26.8815 18.4909C27.7282 18.9167 28.7195 19.2545 29.8236 19.4903C30.9772 19.7366 32.2014 19.8597 33.4678 19.8597H33.5313C33.7359 19.1032 34.4274 18.5472 35.2529 18.5472C36.2371 18.5472 37.0344 19.3425 37.0344 20.3242C37.0344 21.3059 36.2371 22.1011 35.2529 22.1011C34.4309 22.1011 33.7359 21.5452 33.5313 20.7887H33.4678C30.8291 20.7887 28.3385 20.2679 26.4582 19.3178C25.9713 19.0715 25.5374 18.8041 25.1564 18.5156C25.2164 18.6211 25.2834 18.7302 25.3505 18.8358C26.0243 19.8843 26.9909 20.8309 28.2256 21.6472C29.4744 22.4706 30.9349 23.1216 32.5612 23.5755C34.2545 24.047 36.0501 24.2863 37.9057 24.2863H37.9692C38.1738 23.5298 38.8688 22.9738 39.6908 22.9738C40.675 22.9738 41.4723 23.769 41.4723 24.7508C41.4723 25.7325 40.675 26.5277 39.6908 26.5277C38.8688 26.5277 38.1738 25.9718 37.9692 25.2152H37.9057C35.9655 25.2152 34.0816 24.9654 32.3107 24.4693C30.5892 23.9872 29.044 23.301 27.7105 22.4214C27.0826 22.0061 26.5181 21.5593 26.0172 21.0842C26.8956 22.4601 28.0809 23.7057 29.5485 24.793C31.2065 26.021 33.1362 26.9851 35.2881 27.6607C37.5212 28.361 39.8989 28.7164 42.3472 28.7164H42.4107C42.6153 27.9598 43.3067 27.4039 44.1322 27.4039C45.1165 27.4039 45.9137 28.1991 45.9137 29.1808C45.9137 30.1626 45.1165 30.9578 44.1322 30.9578C43.3102 30.9578 42.6153 30.4018 42.4107 29.6453H42.3472C39.8037 29.6453 37.3342 29.2758 35.0094 28.5475C32.7587 27.8402 30.7338 26.8303 28.9911 25.5389C27.2413 24.2405 25.8655 22.7275 24.8989 21.0385C23.8935 19.2791 23.3855 17.4036 23.3855 15.4719C23.3855 15.3874 23.3855 15.303 23.389 15.215V15.2044L23.3855 15.2185ZM44.1252 2.62497C44.5944 2.62497 44.9718 2.24495 44.9718 1.78048C44.9718 1.31601 44.5908 0.935982 44.1252 0.935982C43.656 0.935982 43.2785 1.31601 43.2785 1.78048C43.2785 2.24495 43.6595 2.62497 44.1252 2.62497ZM39.6837 7.05506C40.1529 7.05506 40.5304 6.67503 40.5304 6.21056C40.5304 5.74609 40.1494 5.36606 39.6837 5.36606C39.2145 5.36606 38.8371 5.74609 38.8371 6.21056C38.8371 6.67503 39.2181 7.05506 39.6837 7.05506ZM35.2423 11.4851C35.7115 11.4851 36.0889 11.1051 36.0889 10.6406C36.0889 10.1762 35.7079 9.79615 35.2423 9.79615C34.7766 9.79615 34.3956 10.1762 34.3956 10.6406C34.3956 11.1051 34.7766 11.4851 35.2423 11.4851ZM30.381 16.3339C30.8502 16.3339 31.2277 15.9539 31.2277 15.4895C31.2277 15.025 30.8467 14.645 30.381 14.645C29.9154 14.645 29.5344 15.025 29.5344 15.4895C29.5344 15.9539 29.9154 16.3339 30.381 16.3339ZM35.2423 21.1828C35.7115 21.1828 36.0889 20.8027 36.0889 20.3383C36.0889 19.8738 35.7079 19.4938 35.2423 19.4938C34.7731 19.4938 34.3956 19.8738 34.3956 20.3383C34.3956 20.8027 34.7766 21.1828 35.2423 21.1828ZM39.6837 25.6128C40.1529 25.6128 40.5304 25.2328 40.5304 24.7683C40.5304 24.3039 40.1494 23.9239 39.6837 23.9239C39.2181 23.9239 38.8371 24.3039 38.8371 24.7683C38.8371 25.2328 39.2181 25.6128 39.6837 25.6128ZM44.1252 30.0429C44.5944 30.0429 44.9718 29.6629 44.9718 29.1984C44.9718 28.734 44.5908 28.3539 44.1252 28.3539C43.656 28.3539 43.2785 28.734 43.2785 29.1984C43.2785 29.6629 43.6595 30.0429 44.1252 30.0429Z" clip-rule="evenodd" fill-rule="evenodd"></path>
<path fill="white" d="M22.5282 15.2185V15.208C22.4788 13.3747 21.9708 11.5942 21.0148 9.9193C20.0517 8.23031 18.6759 6.71726 16.9226 5.41885C15.1834 4.12747 13.1585 3.1176 10.9043 2.41033C8.5795 1.68195 6.11007 1.31249 3.56656 1.31249H3.50306C3.29845 0.555959 2.60701 0 1.78152 0C0.797272 0 0 0.795233 0 1.77696C0 2.75868 0.797272 3.55392 1.78152 3.55392C2.60348 3.55392 3.29845 2.99796 3.50306 2.24143H3.56656C6.01482 2.24143 8.389 2.59682 10.6256 3.29705C12.7775 3.97265 14.7107 4.93678 16.3652 6.16482C17.8328 7.2521 19.0181 8.49774 19.8965 9.87356C19.3956 9.39501 18.8311 8.94813 18.2032 8.53644C16.8732 7.65676 15.3246 6.96709 13.603 6.48854C11.8286 5.9924 9.94474 5.74257 8.008 5.74257H7.9445C7.73989 4.98604 7.04845 4.43008 6.22296 4.43008C5.23871 4.43008 4.44144 5.22532 4.44144 6.20704C4.44144 7.18877 5.23871 7.984 6.22296 7.984C7.04492 7.984 7.73989 7.42804 7.9445 6.67151H8.008C9.8636 6.67151 11.6592 6.91079 13.3525 7.3823C14.9788 7.83621 16.4393 8.48366 17.6882 9.31056C18.9229 10.1269 19.893 11.0734 20.5633 12.122C20.6303 12.2276 20.6938 12.3332 20.7573 12.4422C20.3798 12.1537 19.9459 11.8863 19.4556 11.64C17.5753 10.6934 15.0847 10.1691 12.4459 10.1691H12.3824C12.1778 9.41261 11.4864 8.85665 10.6609 8.85665C9.67663 8.85665 8.87935 9.65188 8.87935 10.6336C8.87935 11.6153 9.67663 12.4106 10.6609 12.4106C11.4828 12.4106 12.1778 11.8546 12.3824 11.0981H12.4459C13.7124 11.0981 14.9365 11.2212 16.0901 11.4675C17.1943 11.7033 18.1856 12.0411 19.0322 12.4669C19.5473 12.7273 19.9918 13.0123 20.3622 13.3184C20.0059 13.7547 19.6531 14.3318 19.5402 15.0144H17.2437C17.039 14.2579 16.3476 13.7019 15.5221 13.7019C14.5379 13.7019 13.7406 14.4972 13.7406 15.4789C13.7406 16.4606 14.5379 17.2559 15.5221 17.2559C16.3441 17.2559 17.039 16.6999 17.2437 15.9434H19.579C19.7307 16.4395 20.087 16.9779 20.4998 17.5198C20.1047 17.8716 19.6143 18.1989 19.0322 18.4909C18.1856 18.9167 17.1943 19.2545 16.0901 19.4903C14.9365 19.7366 13.7124 19.8597 12.4459 19.8597H12.3824C12.1778 19.1032 11.4864 18.5472 10.6609 18.5472C9.67663 18.5472 8.87935 19.3425 8.87935 20.3242C8.87935 21.3059 9.67663 22.1011 10.6609 22.1011C11.4828 22.1011 12.1778 21.5452 12.3824 20.7887H12.4459C15.0847 20.7887 17.5753 20.2679 19.4556 19.3178C19.9424 19.0715 20.3763 18.8041 20.7573 18.5156C20.6973 18.6211 20.6303 18.7302 20.5633 18.8358C19.8895 19.8843 18.9229 20.8309 17.6882 21.6472C16.4393 22.4706 14.9788 23.1216 13.3525 23.5755C11.6592 24.047 9.8636 24.2863 8.008 24.2863H7.9445C7.73989 23.5298 7.04492 22.9738 6.22296 22.9738C5.23871 22.9738 4.44144 23.769 4.44144 24.7508C4.44144 25.7325 5.23871 26.5277 6.22296 26.5277C7.04492 26.5277 7.73989 25.9718 7.9445 25.2152H8.008C9.94827 25.2152 11.8321 24.9654 13.603 24.4693C15.3246 23.9872 16.8697 23.301 18.2032 22.4214C18.8311 22.0061 19.3956 21.5593 19.8965 21.0842C19.0181 22.4601 17.8328 23.7057 16.3652 24.793C14.7072 26.021 12.7775 26.9851 10.6256 27.6607C8.39252 28.361 6.01482 28.7164 3.56656 28.7164H3.50306C3.29845 27.9598 2.60701 27.4039 1.78152 27.4039C0.797272 27.4039 0 28.1991 0 29.1808C0 30.1626 0.797272 30.9578 1.78152 30.9578C2.60348 30.9578 3.29845 30.4018 3.50306 29.6453H3.56656C6.11007 29.6453 8.5795 29.2758 10.9043 28.5475C13.155 27.8402 15.1799 26.8303 16.9226 25.5389C18.6724 24.2405 20.0482 22.7275 21.0148 21.0385C22.0202 19.2791 22.5282 17.4036 22.5282 15.4719C22.5282 15.3874 22.5282 15.303 22.5247 15.215V15.2044L22.5282 15.2185ZM1.78152 2.62497C1.31232 2.62497 0.934855 2.24495 0.934855 1.78048C0.934855 1.31601 1.31585 0.935982 1.78152 0.935982C2.25071 0.935982 2.62818 1.31601 2.62818 1.78048C2.62818 2.24495 2.24718 2.62497 1.78152 2.62497ZM6.22296 7.05506C5.75377 7.05506 5.3763 6.67503 5.3763 6.21056C5.3763 5.74609 5.75729 5.36606 6.22296 5.36606C6.69215 5.36606 7.06962 5.74609 7.06962 6.21056C7.06962 6.67503 6.68862 7.05506 6.22296 7.05506ZM10.6644 11.4851C10.1952 11.4851 9.81774 11.1051 9.81774 10.6406C9.81774 10.1762 10.1987 9.79615 10.6644 9.79615C11.1336 9.79615 11.5111 10.1762 11.5111 10.6406C11.5111 11.1051 11.1301 11.4851 10.6644 11.4851ZM15.5256 16.3339C15.0565 16.3339 14.679 15.9539 14.679 15.4895C14.679 15.025 15.06 14.645 15.5256 14.645C15.9913 14.645 16.3723 15.025 16.3723 15.4895C16.3723 15.9539 15.9913 16.3339 15.5256 16.3339ZM10.6644 21.1828C10.1952 21.1828 9.81774 20.8027 9.81774 20.3383C9.81774 19.8738 10.1987 19.4938 10.6644 19.4938C11.1301 19.4938 11.5111 19.8738 11.5111 20.3383C11.5111 20.8027 11.1301 21.1828 10.6644 21.1828ZM6.22296 25.6128C5.75377 25.6128 5.3763 25.2328 5.3763 24.7683C5.3763 24.3039 5.75729 23.9239 6.22296 23.9239C6.69215 23.9239 7.06962 24.3039 7.06962 24.7683C7.06962 25.2328 6.68862 25.6128 6.22296 25.6128ZM1.78152 30.0429C1.31232 30.0429 0.934855 29.6629 0.934855 29.1984C0.934855 28.734 1.31585 28.3539 1.78152 28.3539C2.24718 28.3539 2.62818 28.734 2.62818 29.1984C2.62818 29.6629 2.24718 30.0429 1.78152 30.0429Z"></path>
<path fill="white" d="M53.1974 20.3046V5.0332C55.1938 5.0332 56.8097 6.64807 56.8097 8.63629V23.9046C54.8134 23.9046 53.1974 22.2898 53.1974 20.3015V20.3046Z"></path>
<path fill="white" d="M61.6755 23.9079H58.2853V9.04935H61.6146V12.9681H61.9007C62.7254 10.218 64.6275 8.66992 67.129 8.66992C70.2361 8.66992 71.7243 10.7553 71.7243 13.982V23.9079H68.3341V14.8683C68.3341 13.0653 67.5429 11.7388 65.4826 11.7388C63.2002 11.7388 61.6786 13.2565 61.6786 15.4997V23.9079H61.6755Z"></path>
<path fill="white" d="M81.9242 24.3177C79.1975 24.3177 77.4567 22.548 76.7263 19.9558H76.5042V28.713C74.6326 28.713 73.114 27.1984 73.114 25.3315V9.04935H76.5042V12.9074H76.7263C77.5176 10.3455 79.167 8.66992 81.8603 8.66992C85.3783 8.66992 87.3442 11.4504 87.3442 16.5105C87.3442 21.5706 85.2839 24.3177 81.9242 24.3177ZM83.9845 16.5105C83.9845 13.2869 82.8433 11.7357 80.3387 11.7357C77.9923 11.7357 76.5042 13.381 76.5042 15.9732V17.1115C76.5042 19.6097 78.0258 21.3156 80.3082 21.3156C82.8128 21.3156 83.9845 19.7038 83.9845 16.5105Z"></path>
<path fill="white" d="M98.7865 19.9856H98.47C97.6453 22.7357 95.7433 24.3172 93.2721 24.3172C90.1346 24.3172 88.6464 22.1984 88.6464 18.9748V9.04883H92.0701V18.0884C92.0701 19.8915 92.8613 21.218 94.8911 21.218C97.204 21.218 98.6952 19.7002 98.6952 17.457V9.04883H102.119V23.9074H98.7895V19.9886L98.7865 19.9856Z"></path>
<path fill="white" d="M105.509 11.7992H103.418V9.04911H105.509V5.0332H108.932V9.04911H113.306V11.7992H108.932V18.9113C108.932 20.3653 109.471 21.1242 110.962 21.1242C111.723 21.1242 112.389 20.9663 113.117 20.7447L113.528 23.7802C112.417 24.1293 111.659 24.3175 110.168 24.3175C106.903 24.3175 105.509 22.1684 105.509 19.3848V11.7992Z"></path>
<path fill="white" d="M145.565 9.76548C145.015 7.49496 143.247 5.71011 140.979 5.12427C132.446 2.91446 127.139 7.05179 127.139 14.3612C127.139 20.3683 130.529 24.3175 136.646 24.3175C144.175 24.3175 147.629 18.2708 145.565 9.76548ZM136.612 21.1879C132.525 21.1879 130.718 18.4681 130.718 14.3612C130.718 10.2542 132.556 7.69227 136.643 7.69227C140.73 7.69227 142.537 10.3786 142.537 14.3612C142.537 18.3437 140.73 21.1879 136.612 21.1879Z"></path>
<path fill="white" d="M157.723 19.9856H157.407C156.582 22.7357 154.68 24.3172 152.209 24.3172C149.071 24.3172 147.583 22.1984 147.583 18.9748V9.04883H151.007V18.0884C151.007 19.8915 151.798 21.218 153.828 21.218C156.141 21.218 157.632 19.7002 157.632 17.457V9.04883H161.055V23.9074H157.726V19.9886L157.723 19.9856Z"></path>
<path fill="white" d="M164.486 11.7992H162.395V9.04911H164.486V5.0332H167.909V9.04911H172.283V11.7992H167.909V18.9113C167.909 20.3653 168.448 21.1242 169.939 21.1242C170.7 21.1242 171.366 20.9663 172.094 20.7447L172.505 23.7802C171.394 24.1293 170.636 24.3175 169.145 24.3175C165.88 24.3175 164.486 22.1684 164.486 19.3848V11.7992Z"></path>
<path fill="white" d="M182.594 8.67013C179.901 8.67013 178.251 10.3457 177.46 12.9046H177.238V9.04653H173.848V25.3257C173.848 27.1925 175.366 28.7072 177.238 28.7072V19.9499H177.46C178.19 22.5422 179.931 24.3118 182.658 24.3118C186.018 24.3118 188.078 21.5617 188.078 16.5046C188.078 11.4476 186.112 8.66406 182.594 8.66406V8.67013ZM181.042 21.3158C178.759 21.3158 177.238 19.6099 177.238 17.1117V15.9734C177.238 13.3812 178.726 11.7359 181.072 11.7359C183.577 11.7359 184.718 13.284 184.718 16.5107C184.718 19.7374 183.546 21.3158 181.042 21.3158Z"></path>
<path fill="white" d="M199.563 19.9856H199.246C198.422 22.7357 196.52 24.3172 194.049 24.3172C190.911 24.3172 189.423 22.1984 189.423 18.9748V9.04883H192.846V18.0884C192.846 19.8915 193.638 21.218 195.668 21.218C197.98 21.218 199.472 19.7002 199.472 17.457V9.04883H202.895V23.9074H199.566V19.9886L199.563 19.9856Z"></path>
<path fill="white" d="M206.326 11.7992H204.235V9.04911H206.326V5.0332H209.749V9.04911H214.122V11.7992H209.749V18.9113C209.749 20.3653 210.288 21.1242 211.779 21.1242C212.54 21.1242 213.206 20.9663 213.934 20.7447L214.345 23.7802C213.234 24.1293 212.476 24.3175 210.985 24.3175C207.719 24.3175 206.326 22.1684 206.326 19.3848V11.7992Z"></path>
<path fill="white" d="M121.105 28.6858C120.25 28.6858 119.559 27.9906 119.559 27.1346V1.9707C120.414 1.9707 121.105 2.66582 121.105 3.52182V28.6858Z"></path>
</g>
<defs>
<clipPath id="clip0_7883_57184">
<rect fill="white" height="31" width="240"></rect>
</clipPath>
</defs>
</svg>
